HIERARCHY
ROOT Hips
{
  OFFSET -25.4992 47.4658 0.522821
  CHANNELS 6 Xposition Yposition Zposition Zrotation Xrotation Yrotation
  JOINT Bip01_Pelvis
  {
    OFFSET 0 0 0
    CHANNELS 6 Xposition Yposition Zposition Zrotation Xrotation Yrotation
    JOINT Bip01_Spine
    {
      OFFSET 7.92815 1.03427 -0.957866
      CHANNELS 6 Xposition Yposition Zposition Zrotation Xrotation Yrotation
      JOINT Bip01_Spine1
      {
        OFFSET 14.2482 -0.00839019 0.000894789
        CHANNELS 6 Xposition Yposition Zposition Zrotation Xrotation Yrotation
        JOINT Bip01_Neck
        {
          OFFSET 16.1384 -3.98645 0.000135839
          CHANNELS 6 Xposition Yposition Zposition Zrotation Xrotation Yrotation
          JOINT Bip01_Neck1
          {
            OFFSET 9.69266 -0.00491233 0
            CHANNELS 6 Xposition Yposition Zposition Zrotation Xrotation Yrotation
            JOINT Bip01_Head
            {
              OFFSET 6.2355 0 0
              CHANNELS 6 Xposition Yposition Zposition Zrotation Xrotation Yrotation
              JOINT BN_Mouth_01
              {
                OFFSET 4.58056 2.14338 0
                CHANNELS 6 Xposition Yposition Zposition Zrotation Xrotation Yrotation
                End Site
                {
                  OFFSET 0 0 0
                }
              }
            }
          }
          JOINT Bip01_L_Clavicle
          {
            OFFSET -0.933029 -3.98291 -6.88005
            CHANNELS 6 Xposition Yposition Zposition Zrotation Xrotation Yrotation
            JOINT Bip01_L_UpperArm
            {
              OFFSET 15.6802 0 0
              CHANNELS 6 Xposition Yposition Zposition Zrotation Xrotation Yrotation
              JOINT Bip01_L_Forearm
              {
                OFFSET 15.3149 0 0
                CHANNELS 6 Xposition Yposition Zposition Zrotation Xrotation Yrotation
                JOINT Bip01_L_Hand
                {
                  OFFSET 16.178 0 0
                  CHANNELS 6 Xposition Yposition Zposition Zrotation Xrotation Yrotation
                  JOINT Bip01_L_Finger0
                  {
                    OFFSET 12.9992 0 0
                    CHANNELS 6 Xposition Yposition Zposition Zrotation Xrotation Yrotation
                    End Site
                    {
                      OFFSET 0 0 0
                    }
                  }
                }
              }
              JOINT BN__UpperArm_L_01
              {
                OFFSET 4.92586 2.56729 1.95639
                CHANNELS 6 Xposition Yposition Zposition Zrotation Xrotation Yrotation
                End Site
                {
                  OFFSET 0 0 0
                }
              }
            }
          }
          JOINT Bip01_R_Clavicle
          {
            OFFSET -1.90751 -3.34722 7.0168
            CHANNELS 6 Xposition Yposition Zposition Zrotation Xrotation Yrotation
            JOINT Bip01_R_UpperArm
            {
              OFFSET 15.6801 0 0
              CHANNELS 6 Xposition Yposition Zposition Zrotation Xrotation Yrotation
              JOINT Bip01_R_Forearm
              {
                OFFSET 15.3149 0 0
                CHANNELS 6 Xposition Yposition Zposition Zrotation Xrotation Yrotation
                JOINT Bip01_R_Hand
                {
                  OFFSET 16.1779 0 0
                  CHANNELS 6 Xposition Yposition Zposition Zrotation Xrotation Yrotation
                  JOINT Bip01_R_Finger0
                  {
                    OFFSET 12.9991 0 0
                    CHANNELS 6 Xposition Yposition Zposition Zrotation Xrotation Yrotation
                    End Site
                    {
                      OFFSET 0 0 0
                    }
                  }
                }
              }
              JOINT BN__UpperArm_R_01
              {
                OFFSET 4.92584 2.56728 -1.95638
                CHANNELS 6 Xposition Yposition Zposition Zrotation Xrotation Yrotation
                End Site
                {
                  OFFSET 0 0 0
                }
              }
            }
          }
        }
      }
      JOINT Bip01_L_Thigh
      {
        OFFSET -8.91231 -1.85462 5.82833
        CHANNELS 6 Xposition Yposition Zposition Zrotation Xrotation Yrotation
        JOINT Bip01_L_Calf
        {
          OFFSET 15.7566 0 0
          CHANNELS 6 Xposition Yposition Zposition Zrotation Xrotation Yrotation
          JOINT Bip01_L_HorseLink
          {
            OFFSET 16.2363 0 0
            CHANNELS 6 Xposition Yposition Zposition Zrotation Xrotation Yrotation
            JOINT Bip01_L_Foot
            {
              OFFSET 13.9816 0 0
              CHANNELS 6 Xposition Yposition Zposition Zrotation Xrotation Yrotation
              JOINT Bip01_L_Toe0
              {
                OFFSET 7.68594 5.03696 0
                CHANNELS 6 Xposition Yposition Zposition Zrotation Xrotation Yrotation
                End Site
                {
                  OFFSET 0 0 0
                }
              }
            }
          }
        }
      }
      JOINT Bip01_R_Thigh
      {
        OFFSET -6.80264 -1.57702 -6.62463
        CHANNELS 6 Xposition Yposition Zposition Zrotation Xrotation Yrotation
        JOINT Bip01_R_Calf
        {
          OFFSET 15.7566 0 0
          CHANNELS 6 Xposition Yposition Zposition Zrotation Xrotation Yrotation
          JOINT Bip01_R_HorseLink
          {
            OFFSET 16.2363 0 0
            CHANNELS 6 Xposition Yposition Zposition Zrotation Xrotation Yrotation
            JOINT Bip01_R_Foot
            {
              OFFSET 13.9816 0 0
              CHANNELS 6 Xposition Yposition Zposition Zrotation Xrotation Yrotation
              JOINT Bip01_R_Toe0
              {
                OFFSET 7.68597 5.03696 0
                CHANNELS 6 Xposition Yposition Zposition Zrotation Xrotation Yrotation
                End Site
                {
                  OFFSET 0 0 0
                }
              }
            }
          }
        }
      }
    }
    JOINT BN_Tail_01
    {
      OFFSET -7.9584 -2.82211 0
      CHANNELS 6 Xposition Yposition Zposition Zrotation Xrotation Yrotation
      JOINT BN_Tail_02
      {
        OFFSET 10.9082 0 0.00113176
        CHANNELS 6 Xposition Yposition Zposition Zrotation Xrotation Yrotation
        End Site
        {
          OFFSET 0 0 0
        }
      }
    }
  }
}
MOTION
Frames:	6
Frame Time:	0.0333333
-24.6715 51.5169 -0.138812 -101.796 -83.4843 3.17102 -9.67198e-007 1.32026e-007 -1.69645e-007 -92.8792 0.370747 -88.6257 7.96898 1.11554 0.244095 -9.65126 2.99015 -4.21436 14.2468 -0.0081804 2.23414e-006 -13.572 1.22881 -8.94311 16.1388 -3.98757 3.16238e-006 -44.0573 -0.16616 -1.65933 9.69313 -0.00465783 1.26739e-006 -19.2468 -4.50478 10.6957 6.23547 2.50542e-006 1.30196e-007 32.5328 -5.36024 -5.7642 4.58056 2.14337 9.13714e-007 -111.563 1.46407 -178.997 -2.75947 -2.96586 -6.90424 -135.895 4.00121 -91.0795 15.6801 7.91673e-006 2.16948e-006 -26.0726 -85.3389 57.4767 15.3148 -8.05881e-007 -7.92172e-007 -14.4068 -1.33977e-005 -2.10088e-005 16.178 -1.98756e-006 8.28888e-007 -6.77403 -85.437 -20.6104 12.9992 -3.60994e-007 2.51402e-007 1.44726 10.0958 5.65731 4.92584 2.56727 1.95639 14.1162 -8.4821 -6.70254 -2.35498 -3.00608 7.03532 -136.097 -6.77841 88.9078 15.6802 2.89176e-006 3.44311e-006 9.84134 68.2265 -102.445 15.3149 1.00701e-006 -1.04942e-006 -16.3591 -1.06636e-006 -4.42834e-005 16.178 5.67779e-007 -2.50711e-007 -100.103 80.4873 98.083 12.9993 -3.65326e-007 5.19732e-007 0.00239579 0.0453886 -5.99681 4.92584 2.56728 -1.95638 -165.885 -8.52254 173.302 -7.19515 -2.11643 6.73906 -97.4127 9.63477 -176.993 15.7566 3.98198e-006 5.25176e-007 -34.5301 2.8335e-006 1.38708e-005 16.2363 -5.11665e-006 2.68415e-006 39.1749 -2.37245e-005 -2.3574e-006 13.9816 1.20201e-006 1.57806e-006 -4.11591 -7.37212 -4.32333 7.68594 5.03695 1.22829e-006 89.9958 3.18051 0.000139671 -8.12233 -2.774 -5.84363 -106.208 -4.42432 174.776 15.7566 -2.49343e-006 -6.10081e-007 -25.5642 7.87279e-006 6.95456e-006 16.2363 2.64656e-006 0.000540732 31.848 1.23787e-005 3.92278e-006 13.9817 2.4735e-008 -2.54537e-006 -15.6448 10.481 5.16274 7.68595 5.037 -2.30899e-006 89.996 -0.00264574 4.63296 -7.9584 -2.82211 -8.73263e-007 -73.7122 8.04199 -176.631 10.9082 -4.52985e-006 5.62003e-007 6.36856 6.4556 -14.3979 
-24.6638 51.5065 -0.155559 -101.774 -83.4497 3.19511 1.33969e-006 1.59866e-007 8.68749e-007 -92.8808 0.370685 -88.6257 7.9685 1.1152 0.242942 -9.6625 2.98208 -4.19722 14.2455 -0.00817711 9.24742e-007 -13.5447 1.26149 -9.02762 16.1371 -3.98713 4.90128e-007 -44.0463 -0.178074 -1.64896 9.69159 -0.00462636 6.84562e-007 -19.0804 -4.52292 10.7324 6.23407 7.70138e-006 -5.27663e-006 32.6117 -5.49009 -5.72948 4.57933 2.1428 3.79017e-006 -111.544 1.46471 -178.996 -2.75904 -2.96282 -6.90431 -135.913 3.97548 -91.0657 15.6774 5.99023e-006 8.36573e-006 -27.1647 -85.3307 56.4346 15.3104 -1.3678e-005 2.40555e-005 -14.3396 -1.95882e-005 -0.000107179 16.1724 -4.14008e-005 2.81155e-005 -7.06418 -85.466 -20.8713 12.9943 -9.92287e-005 1.19091e-005 1.44676 10.0963 5.65744 4.92442 2.56655 1.95585 14.1163 -8.48227 -6.70271 -2.35703 -3.00635 7.03315 -136.111 -6.75365 88.9263 15.6762 8.33042e-007 3.67157e-007 9.99895 68.1953 -102.609 15.3109 7.26372e-006 2.54566e-006 -16.3823 -1.52022e-006 -1.59422e-005 16.1738 -1.33292e-005 2.6924e-006 -99.9396 80.5081 97.9054 12.9951 -1.19331e-005 2.50432e-005 0.00232473 0.045424 -5.99714 4.92457 2.56663 -1.95588 -165.885 -8.52262 173.302 -7.1962 -2.11862 6.73609 -97.4137 9.63066 -176.98 15.7534 1.35235e-005 -4.07195e-006 -34.6035 -1.27028e-005 3.63589e-005 16.2321 -3.41314e-005 -3.4743e-006 39.2474 2.03977e-006 1.84747e-005 13.9772 1.13912e-005 -2.31597e-006 -4.12704 -7.40066 -4.29828 7.68309 5.03511 3.15559e-006 89.9958 3.18056 0.000109805 -8.11939 -2.77483 -5.84562 -106.258 -4.40175 174.765 15.7551 1.53961e-005 1.36452e-006 -25.688 2.37722e-005 -7.94954e-006 16.233 -6.89076e-006 0.000541297 31.9061 -3.96957e-005 -2.80396e-005 13.9783 1.25875e-005 6.81794e-006 -15.6536 10.4458 5.18339 7.68402 5.03575 -1.88657e-005 89.9959 -0.00267527 4.63307 -7.95767 -2.82183 8.89651e-008 -73.8042 8.09975 -176.658 10.9067 -2.52139e-005 -1.7692e-005 5.8273 6.38616 -14.0851 
-24.6561 51.4962 -0.172305 -101.747 -83.42 3.20711 2.46095e-006 -4.95736e-009 -1.93951e-006 -92.8246 0.367702 -88.6294 7.96808 1.11506 0.241799 -9.67282 2.9703 -4.17708 14.2442 -0.00793574 2.72593e-005 -13.5089 1.29699 -9.11279 16.1353 -3.98676 0.000144407 -44.0602 -0.188038 -1.64242 9.69015 -0.00484086 7.45856e-005 -18.8483 -4.51443 10.7584 6.23298 -0.000138197 -3.16931e-005 32.6531 -5.63784 -5.66398 4.57859 2.14248 -9.13207e-006 -111.526 1.46527 -178.995 -2.75612 -2.96179 -6.90373 -135.908 3.94959 -91.0474 15.6752 4.41795e-005 0.000129374 -28.1772 -85.3251 55.4656 15.3069 -0.000134766 0.000379841 -14.2714 1.233e-005 -0.00145213 16.1677 -0.000135582 0.000413903 -7.36828 -85.4947 -21.1467 12.9898 -0.000339084 -9.07822e-005 1.44557 10.096 5.65838 4.9233 2.56589 1.95553 14.1143 -8.48298 -6.70488 -2.35657 -3.0075 7.03204 -136.082 -6.73737 88.9401 15.6727 -2.52235e-005 0.000154208 10.1614 68.1549 -102.768 15.3059 -0.000268297 -0.000278433 -16.4046 -0.000465492 0.000929699 16.1687 -0.000243222 -0.000267733 -99.773 80.5286 97.7242 12.9903 -0.000220421 0.000169391 0.00139277 0.046014 -5.99791 4.92294 2.5657 -1.95537 -165.888 -8.5228 173.3 -7.19726 -2.121 6.73336 -97.3851 9.69623 -177.029 15.7509 0.000204674 3.96967e-005 -34.6643 -0.00021856 -0.000338496 16.23 0.000342827 9.26796e-005 39.3199 -0.00036976 -3.67112e-005 13.9754 0.000136039 -6.45073e-006 -4.13772 -7.43015 -4.27334 7.68171 5.03405 -4.65216e-005 89.9951 3.18055 0.000588887 -8.11649 -2.77587 -5.84785 -106.295 -4.38035 174.755 15.7542 0.000100235 -4.63653e-006 -25.8196 3.65166e-005 -0.000365937 16.2309 0.0003509 0.000762636 31.9905 -0.000384283 -0.000682494 13.9757 5.04141e-005 0.000167973 -15.6625 10.4114 5.20358 7.68255 5.03467 9.35825e-005 89.9951 -0.00345209 4.6334 -7.95705 -2.82183 -9.06574e-007 -73.8975 8.15757 -176.685 10.9063 0.000240935 1.69798e-005 5.53383 6.09572 -13.4931 
-24.6484 51.4859 -0.189052 -101.711 -83.3854 3.21662 1.60832e-006 6.30674e-008 8.22279e-007 -92.8606 0.370643 -88.6357 7.96971 1.11484 0.240703 -9.6856 2.95115 -4.15361 14.2468 -0.00817007 2.69615e-008 -13.4684 1.32843 -9.19653 16.1388 -3.98757 -3.14268e-007 -44.1029 -0.199432 -1.63162 9.69317 -0.00462847 3.38475e-008 -18.5522 -4.47679 10.7737 6.23547 2.72756e-006 4.10939e-007 32.6755 -5.79912 -5.57529 4.58056 2.14337 1.5433e-007 -111.506 1.46594 -178.995 -2.75448 -2.9621 -6.9059 -135.858 3.94075 -91.0377 15.6801 8.66903e-006 -2.30895e-006 -29.0899 -85.3145 54.5865 15.3148 5.59307e-007 -1.76357e-006 -14.2046 -4.17273e-007 4.58423e-006 16.178 -3.397e-006 -8.86468e-007 -7.63119 -85.5234 -21.3604 12.9992 -2.4791e-007 -6.60247e-008 1.44723 10.0958 5.65731 4.92584 2.56728 1.95639 14.1162 -8.48209 -6.70251 -2.35741 -3.01011 7.03386 -136.046 -6.73552 88.952 15.6801 2.90128e-006 -9.34701e-007 10.316 68.1047 -102.908 15.3149 -2.24494e-006 7.59023e-007 -16.4422 -2.45195e-006 1.22604e-005 16.178 -5.01224e-006 2.64655e-007 -99.61 80.549 97.5483 12.9993 -2.78905e-007 5.39389e-006 0.00239583 0.0453886 -5.99687 4.92583 2.56728 -1.95637 -165.885 -8.52262 173.302 -7.20118 -2.12473 6.7315 -97.332 9.70479 -177.031 15.7566 6.82618e-006 1.50191e-006 -34.7133 -3.46287e-006 9.54276e-006 16.2363 -7.27527e-006 2.01267e-006 39.4163 2.77438e-005 2.59916e-005 13.9816 5.7585e-006 3.24245e-006 -4.14941 -7.45769 -4.24813 7.68593 5.03695 2.98115e-006 89.9958 3.18049 0.000107052 -8.11516 -2.77446 -5.85211 -106.316 -4.35679 174.743 15.7566 3.40814e-006 -3.58935e-007 -25.9534 -4.15732e-007 3.18581e-006 16.2363 1.05302e-005 0.000537531 32.0953 -1.16606e-005 1.69542e-005 13.9816 4.38999e-006 -2.37571e-006 -15.6913 10.3747 5.23024 7.68595 5.03699 -1.2156e-006 89.9959 -0.00264797 4.63297 -7.9584 -2.82211 -2.50901e-007 -73.9584 8.18361 -176.701 10.9082 -2.76422e-006 6.02497e-007 5.24088 5.8017 -12.9009 
-24.6365 51.4734 -0.207893 -101.671 -83.351 3.2195 2.07298e-006 1.23331e-007 1.43987e-006 -92.8435 0.366953 -88.6424 7.96932 1.11452 0.239553 -9.69405 2.92812 -4.12722 14.2452 -0.00818749 -4.14157e-008 -13.4161 1.36244 -9.28107 16.1366 -3.98703 2.53691e-006 -44.1709 -0.205619 -1.62341 9.69104 -0.00461626 3.02428e-005 -18.1976 -4.41364 10.7809 6.23304 4.39276e-006 1.84695e-005 32.674 -5.97668 -5.46134 4.57845 2.14239 1.5583e-005 -111.488 1.46645 -178.994 -2.74862 -2.96474 -6.90555 -135.787 3.92692 -91.0215 15.6745 1.20764e-005 1.46928e-005 -29.9475 -85.2985 53.7498 15.3098 1.01024e-006 -6.22335e-005 -14.1368 -0.000205969 0.000183992 16.1726 -5.43175e-006 -5.20845e-005 -7.91233 -85.5519 -21.5931 12.9929 6.28728e-005 -2.21844e-005 1.44736 10.0959 5.65715 4.92419 2.56642 1.95565 14.1159 -8.48159 -6.70204 -2.35267 -3.01461 7.03077 -135.972 -6.74805 88.9637 15.6763 -6.63725e-005 5.05739e-005 10.4697 68.0522 -103.031 15.3085 -1.49571e-006 -0.000105857 -16.479 -0.000296182 0.000352725 16.1712 -2.03014e-005 -9.30355e-005 -99.4423 80.5691 97.3668 12.993 -2.31286e-005 2.29132e-006 0.00232298 0.0457275 -5.99671 4.92379 2.56622 -1.95556 -165.886 -8.52219 173.302 -7.203 -2.12801 6.7279 -97.2589 9.73394 -177.052 15.7546 -5.39816e-006 -3.9667e-007 -34.7463 -5.77241e-007 1.15456e-005 16.2308 -2.49099e-005 -1.94284e-007 39.5129 7.68077e-006 -2.81438e-005 13.9737 -1.35152e-006 8.71576e-006 -4.19517 -7.48483 -4.21967 7.68067 5.03354 1.07142e-005 89.996 3.18041 -4.93401e-005 -8.11149 -2.77242 -5.85487 -106.324 -4.33893 174.735 15.7534 -1.07418e-005 -1.2379e-005 -26.0971 -0.000156101 -3.10209e-005 16.2331 -1.1433e-005 0.00054867 32.219 -0.000277016 5.70459e-005 13.9785 -5.32041e-006 -1.33728e-005 -15.734 10.3348 5.2549 7.68423 5.03585 -3.32828e-005 89.9959 -0.00289388 4.63315 -7.95775 -2.82188 1.14025e-006 -73.9887 8.24325 -176.805 10.9073 -8.5624e-006 -1.73039e-007 4.95237 5.50486 -12.3113 
-24.6246 51.4609 -0.226732 -101.627 -83.3164 3.21994 6.67867e-008 1.85765e-007 1.03537e-006 -92.8258 0.366835 -88.6524 7.9699 1.11434 0.238436 -9.70266 2.89814 -4.10142 14.246 -0.00817996 -2.81168e-006 -13.357 1.3919 -9.36247 16.1377 -3.98732 -1.48437e-005 -44.2616 -0.213489 -1.61956 9.69258 -0.00461896 -7.06807e-006 -17.7919 -4.33006 10.7785 6.23454 5.4503e-006 2.94795e-006 32.6426 -6.16753 -5.31572 4.5797 2.14297 -2.07552e-006 -111.469 1.46706 -178.993 -2.74375 -2.9685 -6.90813 -135.698 3.93596 -91.0152 15.6782 -1.2261e-006 -1.63153e-005 -30.7326 -85.2811 52.9782 15.313 2.02007e-005 2.48904e-006 -14.0697 4.35241e-005 -6.64794e-006 16.1751 7.53374e-006 2.43616e-007 -8.20152 -85.5802 -21.8334 12.9959 -3.1606e-006 1.75475e-005 1.44723 10.0957 5.65713 4.92525 2.56698 1.95615 14.1163 -8.4819 -6.70242 -2.34887 -3.02027 7.03072 -135.887 -6.77598 88.9745 15.6791 -4.25713e-006 -1.42e-005 10.625 67.9875 -103.146 15.3126 4.60708e-007 0.000193068 -16.5253 0.000234686 -0.000658324 16.1756 -5.79779e-005 0.000192215 -99.2799 80.5901 97.1903 12.9969 0.000159663 5.74833e-005 0.0030639 0.0452085 -5.99714 4.92508 2.56693 -1.95601 -165.885 -8.52207 173.303 -7.20606 -2.13167 6.72542 -97.1647 9.74277 -177.052 15.7556 3.42796e-006 4.12698e-006 -34.7646 4.9906e-005 4.6589e-005 16.2339 -1.11337e-005 -1.67089e-005 39.6282 8.25845e-005 1.59921e-005 13.978 -1.22589e-006 -1.51496e-006 -4.24076 -7.51178 -4.191 7.68352 5.03537 8.62642e-006 89.9958 3.18022 -0.000254329 -8.10922 -2.77089 -5.85862 -106.32 -4.31707 174.723 15.7558 -2.03288e-006 -6.87881e-006 -26.2407 -1.31326e-005 4.50592e-006 16.2345 4.26194e-006 0.000535408 32.3647 -8.37315e-006 2.11975e-005 13.9799 -8.5332e-007 -5.43425e-006 -15.7769 10.2973 5.28064 7.68454 5.03608 -1.07587e-005 89.9959 -0.00259334 4.63295 -7.9581 -2.822 -1.60029e-006 -74.0189 8.3029 -176.91 10.9072 -8.13784e-006 1.21765e-006 4.66716 5.20522 -11.7235 
